<svg width="1440" height="1423" viewBox="0 0 1440 1423" fill="none" xmlns="http://www.w3.org/2000/svg">
<g clip-path="url(#clip0_2316_492)">
<rect width="1440" height="1423" fill="#FAFAFA"/>
<path d="M-255.466 94.7548C-253.693 77.7507 -245.82 65.332 -236.626 54.8667C-166.256 -25.1691 -19.9925 -3.46496 58.5689 -73.9531C85.4908 -98.107 103.492 -132.326 126.228 -161.281C140.274 -179.165 156.479 -195.256 178.982 -201.908C201.485 -208.56 231.144 -204.859 261.391 -185.679C288.247 -168.648 312.874 -141.402 335.309 -114.11C366.627 -75.9951 397.922 -31.1766 403.155 7.83534C406.54 33.086 398.28 51.678 388.609 67.6926C367.863 102.057 339.948 129.289 306.104 148.202C261.99 172.858 207.404 183.84 174.308 222.25C143.617 257.872 133.612 314.787 102.578 350.016C80.319 375.284 45.8578 388.556 2.62918 376.498C-40.5995 364.439 -92.7055 323.354 -120.205 272.759C-133.288 248.696 -142.333 221.185 -162.766 202.904C-185.667 182.408 -209.434 182.474 -232.84 160.585C-252.792 141.916 -257.235 111.785 -255.454 94.7582L-255.466 94.7548Z" fill="#FFF3CC"/>
<path d="M1130.46 353.636C1131.94 338.229 1138.54 326.976 1146.24 317.494C1205.2 244.974 1327.75 264.64 1393.57 200.771C1416.13 178.886 1431.21 147.88 1450.26 121.644C1462.03 105.439 1475.6 90.8604 1494.46 84.833C1513.31 78.8056 1538.16 82.1584 1563.51 99.5375C1586.01 114.97 1606.64 139.657 1625.44 164.385C1651.68 198.921 1677.9 239.531 1682.28 274.879C1685.12 297.759 1678.2 314.605 1670.09 329.115C1652.71 360.253 1629.32 384.928 1600.97 402.064C1564.01 424.405 1518.27 434.355 1490.54 469.158C1464.83 501.435 1456.45 553.005 1430.44 584.926C1411.79 607.821 1382.92 619.846 1346.7 608.921C1310.48 597.995 1266.83 560.768 1243.79 514.924C1232.82 493.121 1225.25 468.193 1208.13 451.629C1188.94 433.058 1169.03 433.118 1149.42 413.284C1132.7 396.368 1128.98 369.067 1130.47 353.639L1130.46 353.636Z" fill="#FFF3CC"/>
</g>
<defs>
<clipPath id="clip0_2316_492">
<rect width="1440" height="1423" fill="white"/>
</clipPath>
</defs>
</svg>
